<?xml version="1.0" encoding="UTF-8"?><svg id="Capa_1" xmlns="http://www.w3.org/2000/svg" viewBox="0 0 339.08 339.08"><defs><style>.cls-1{fill:#fff;}.cls-2{fill:#d9487d;}</style></defs><path class="cls-2" d="M253.35,339.08H85.71C38.62,339.08,0,300.57,0,253.61V85.48C0,38.51,38.62,0,85.71,0H253.35c47.09,0,85.71,38.51,85.71,85.48V252.67c.94,47.9-37.67,86.42-85.71,86.42Z"/><path class="cls-1" d="M225.59,119.37c-1.17-.61-2.3-1.29-3.4-2.01-3.18-2.14-6.1-4.68-8.7-7.52-6.49-7.58-8.92-15.25-9.81-20.62h.04c-.75-4.46-.45-7.35-.39-7.35h-29.57v116.41c0,1.56,0,3.12-.07,4.64,0,.19-.01,.37-.03,.57,0,.08,0,.18-.03,.26v.07c-.31,4.19-1.61,8.21-3.82,11.75-2.2,3.54-5.22,6.48-8.8,8.54-3.74,2.17-7.96,3.29-12.25,3.29-13.77,0-24.95-11.44-24.95-25.56s11.18-25.58,24.95-25.58c2.62,0,5.2,.42,7.69,1.25l.04-30.66c-7.54-.99-15.18-.38-22.47,1.79-7.29,2.18-14.06,5.87-19.87,10.83-5.1,4.51-9.38,9.89-12.67,15.9-1.25,2.18-5.95,10.99-6.52,25.29-.37,8.09,2.03,16.51,3.17,19.98v.08c.72,2.03,3.5,9.01,8.02,14.9,3.66,4.73,7.98,8.88,12.82,12.31v-.07l.07,.07c14.31,9.89,30.2,9.26,30.2,9.26,2.74-.12,11.95,0,22.4-5.04,11.6-5.6,18.19-13.92,18.19-13.92,4.23-4.99,7.58-10.65,9.92-16.78,2.68-7.17,3.56-15.75,3.56-19.18v-61.78c.37,.22,5.15,3.44,5.15,3.44,0,0,6.89,4.5,17.62,7.41,7.7,2.09,18.09,2.52,18.09,2.52v-29.89c-3.65,.41-11.02-.77-18.6-4.59h.01Z"/></svg>