<?xml version="1.0" encoding="UTF-8"?><svg id="Capa_1" xmlns="http://www.w3.org/2000/svg" viewBox="0 0 60 60"><defs><style>.cls-1{fill:#fff;}.cls-2{fill:#0e0d0d;}</style></defs><g><circle class="cls-1" cx="30" cy="30" r="28.54"/><path class="cls-2" d="M30,60C13.46,60,0,46.54,0,30S13.46,0,30,0s30,13.46,30,30-13.46,30-30,30Zm0-57.07C15.07,2.93,2.93,15.07,2.93,30s12.14,27.07,27.07,27.07,27.07-12.14,27.07-27.07S44.93,2.93,30,2.93Z"/></g><path class="cls-2" d="M38.35,28.97l-11.71-11.71c-.57-.57-1.5-.57-2.07,0s-.57,1.5,0,2.07l10.67,10.67-10.67,10.67c-.57,.57-.57,1.5,0,2.07,.29,.29,.66,.43,1.03,.43s.75-.14,1.03-.43l11.71-11.71c.57-.57,.57-1.5,0-2.07Z"/></svg>