<?xml version="1.0" encoding="UTF-8"?><svg id="Capa_1" xmlns="http://www.w3.org/2000/svg" viewBox="0 0 339.08 339.08"><defs><style>.cls-1{fill:#fff;}.cls-2{fill:#d9487d;}</style></defs><path class="cls-2" d="M253.35,339.08H85.71C38.62,339.08,0,300.57,0,253.61V85.48C0,38.51,38.62,0,85.71,0H253.35c47.09,0,85.71,38.51,85.71,85.48V252.67c.94,47.9-37.67,86.42-85.71,86.42Z"/><path class="cls-1" d="M257.16,201.11l-33.46-26.68c-6.77-5.37-16.69-4.79-23.21,1.24l-9.5,8.84c-15.36-8.76-28.42-20.74-37.83-34.78l8.84-8.26c6.86-6.44,7.43-16.6,1.24-23.3l-28.83-30.98c-6.53-6.94-17.68-7.1-24.95-.33l-23.79,22.14c-9.83,9.09-12.47,22.8-6.69,34.03,25.19,48.41,67.65,88.06,119.7,111.43,3.96,1.82,8.26,2.73,12.56,2.73,8.1,0,16.19-3.06,22.39-8.84l23.96-22.31c3.72-3.47,5.78-8.18,5.53-13.05-.16-4.63-2.31-8.92-5.95-11.9Zm-34.78,35.19c-4.63,4.29-11.56,5.62-16.93,3.14-48.66-21.89-88.31-58.9-111.77-104.09-2.4-4.54-1.07-10.24,3.3-14.29l23.71-22.14c.41-.41,.99-.5,1.32-.5,.16,0,.25,0,.33,.08l28.58,30.73-11.65,10.82c-1.98,1.82-3.39,4.21-3.88,6.94-.41,2.64,.08,5.45,1.57,8.01,11.73,18.92,28.58,34.69,49.07,45.6,2.31,1.16,4.96,1.57,7.35,1.24,2.64-.41,5.04-1.57,6.69-3.22l11.65-10.9c.66-.58,1.49-.5,1.65-.41l32.96,26.68-23.96,22.31Z"/></svg>