<?xml version="1.0" encoding="UTF-8"?><svg id="Capa_1" xmlns="http://www.w3.org/2000/svg" viewBox="0 0 339.08 339.08"><defs><style>.cls-1{fill:#fff;}.cls-2{fill:#d9487d;}</style></defs><path class="cls-2" d="M253.35,339.08H85.71C38.62,339.08,0,300.57,0,253.61V85.48C0,38.51,38.62,0,85.71,0H253.35c47.09,0,85.71,38.51,85.71,85.48V252.67c.94,47.9-37.67,86.42-85.71,86.42Z"/><path class="cls-1" d="M265.77,93.69c-3.67-3.67-8.53-5.69-13.7-5.69H87.02c-5.02,0-9.78,1.91-13.42,5.39-3.59,3.46-5.71,8.11-5.96,13.27v124.95c0,5.11,2.07,10.13,5.68,13.76,3.67,3.68,8.54,5.69,13.71,5.69H252.06c5.18,0,10.04-2.02,13.71-5.69,3.66-3.67,5.68-8.56,5.68-13.76V107.46c0-5.2-2.01-10.09-5.68-13.77Zm-179.99,30.76l81.68,54.61c1.26,.84,2.91,.84,4.16,0l81.69-54.61v108.42H85.77V124.45Zm5.4-18.24H247.92l-78.38,52.41-78.37-52.41Z"/></svg>