<?xml version="1.0" encoding="UTF-8"?><svg id="Capa_1" xmlns="http://www.w3.org/2000/svg" viewBox="0 0 339.08 339.08"><defs><style>.cls-1{fill:#fff;}.cls-2{fill:#d9487d;}</style></defs><path class="cls-2" d="M253.35,339.08H85.71C38.62,339.08,0,300.57,0,253.61V85.48C0,38.51,38.62,0,85.71,0H253.35c47.09,0,85.71,38.51,85.71,85.48V252.67c.94,47.9-37.67,86.42-85.71,86.42Z"/><g><path class="cls-1" d="M219.74,113.76c-6.33,0-10.85,4.2-10.85,10.06s4.52,10.08,10.85,10.08,10.85-4.2,10.85-10.08-5.42-10.06-10.85-10.06Z"/><path class="cls-1" d="M169.98,126.35c-25.32,0-46.11,19.3-46.11,42.77s20.79,42.77,46.11,42.77,46.12-19.3,46.12-42.77c.91-23.48-19.9-42.77-46.12-42.77Zm0,71.29c-16.27,0-29.84-12.58-29.84-27.68s13.57-27.68,29.84-27.68,29.85,12.58,29.85,27.68-13.57,27.68-29.85,27.68Z"/><path class="cls-1" d="M207.07,81.88h-75.05c-31.65,0-56.97,23.5-56.97,52.85v69.61c0,29.36,25.32,52.85,56.97,52.85h75.05c31.65,0,56.97-23.49,56.97-52.85v-69.61c0-29.35-25.32-52.85-56.97-52.85Zm38.88,122.46c0,20.14-17.18,36.07-38.88,36.07h-75.05c-21.69,0-38.88-15.93-38.88-36.07v-69.61c0-20.13,17.19-36.07,38.88-36.07h75.05c21.71,0,38.88,15.94,38.88,36.07v69.61Z"/></g></svg>