<?xml version="1.0" encoding="UTF-8"?><svg id="Capa_1" xmlns="http://www.w3.org/2000/svg" viewBox="0 0 339.08 339.08"><defs><style>.cls-1{fill:#fff;}.cls-2{fill:#d9487d;}</style></defs><path class="cls-2" d="M253.35,339.08H85.71C38.62,339.08,0,300.57,0,253.61V85.48C0,38.51,38.62,0,85.71,0H253.35c47.09,0,85.71,38.51,85.71,85.48V252.67c.94,47.9-37.67,86.42-85.71,86.42Z"/><path class="cls-1" d="M169.77,178.64c-14.08,15.83-27.47,30.82-40.78,45.89-5.28,5.97-11.41,9.91-18.88,11.2-13.35,2.3-26.59-5.09-33.04-18.56-6.4-13.37-4.82-30.33,4.57-41.12,17.33-19.9,34.98-39.45,52.5-59.14,4.16-4.67,8.28-9.4,12.49-14,13.12-14.32,32.53-14.53,45.52-.12,21.46,23.81,42.81,47.76,64.01,71.86,9.6,10.92,12.15,24.15,7.27,38.46-4.84,14.18-14.66,21.85-28.05,22.99-9.89,.84-18.29-3.49-25.29-11.4-12.45-14.07-24.98-28.04-37.45-42.08-.96-1.08-1.73-2.37-2.89-3.98Zm-.32-25.17c8.82,9.92,17.29,19.46,25.77,28.99,8.93,10.04,17.76,20.2,26.85,30.07,9,9.77,23.31,6.04,26.6-6.91,1.95-7.66-.04-14.21-5.16-19.9-20.36-22.65-40.57-45.46-60.86-68.2-8.85-9.92-17.54-9.91-26.4,.03-20.19,22.64-40.37,45.3-60.54,67.97-1.15,1.29-2.32,2.59-3.25,4.08-3.69,5.91-4.2,12.25-1.32,18.68,2.9,6.45,7.76,9.65,14.23,9.76,4.98,.08,8.84-2.42,12.24-6.25,17.13-19.31,34.29-38.58,51.83-58.3Z"/></svg>