<?xml version="1.0" encoding="UTF-8"?><svg id="Capa_1" xmlns="http://www.w3.org/2000/svg" viewBox="0 0 339.08 339.08"><defs><style>.cls-1{fill:#ff7223;}.cls-2{fill:#d9487d;}</style></defs><path class="cls-1" d="M310.93,278.31c-2.42-14.85-13.81-24.45-29.02-24.47-36.65-.03-20.32-.02-56.97-.02h-29.08c-1.65,0-3.15,0-4.51,0h-11.07c-.26,0-.49,0-.54,0h0c-.11,.01-.21,.02-.32,.03-.97,0-2.02,0-3.14,0-12.64,.01-24.18,8.65-27.43,20.53-3.67,13.41,1.46,26.43,12.75,32.4,5.33,2.82,12.22,4.38,19.4,4.4l14.22,.03c43.51,.09,50.22,.11,69.12,.11,5.43,0,11.62,0,19.59,0h-5.62c2.26,0,4.61,0,7.09-.22,7.82-.68,15.08-4.62,19.91-10.82,4.84-6.21,6.88-14.22,5.62-21.99Z"/><g><path class="cls-2" d="M160.54,85.24h71.49c34.53,0,16.08,0,50.62-.03,13.03-.01,24.7-8.83,27.76-20.97,3.49-13.86-2.56-27.49-14.71-33.15-4.69-2.19-10.35-3.25-17.3-3.26-77.8-.11-103.91-.11-180.41-.1H60.83c-1.71,0-3.57,.05-5.86,.14-8.07,.32-15.13,3.83-20.41,10.16-7.32,8.76-8.85,19.37-4.32,29.87,4.73,10.97,14.33,17.27,26.32,17.29,22.81,.04,45.87,.05,68.68,.05,11.86,0,23.65,0,35.3,0Z"/><path class="cls-2" d="M280.98,198.28c1.29,0,2.67,0,4.14-.11,7.78-.56,15.08-4.46,20.01-10.69,4.95-6.25,7.08-14.26,5.83-21.99-2.4-14.92-13.71-24.59-28.83-24.64-19.27-.06,11.13-.05-7.82-.04-4.74,0-9.48,0-14.21,0l-12.5-.02c-6.94,0-14.32,0-26.32,0-34.02-.02-80.62-.04-100.21,.1-8.78,.07-16.85,3.95-22.16,10.67-5.41,6.84-7.35,15.8-5.33,24.58,3.14,13.63,14.41,22.11,29.42,22.12,24.91,.02,60.34,.02,96.72,.02"/></g></svg>