<?xml version="1.0" encoding="UTF-8"?><svg id="Capa_1" xmlns="http://www.w3.org/2000/svg" viewBox="0 0 60 60"><defs><style>.cls-1{fill:#fff;}.cls-2{fill:#0e0d0d;}</style></defs><g><circle class="cls-1" cx="30" cy="30" r="28.54"/><path class="cls-2" d="M30,60C13.46,60,0,46.54,0,30S13.46,0,30,0s30,13.46,30,30-13.46,30-30,30Zm0-57.07C15.07,2.93,2.93,15.07,2.93,30s12.14,27.07,27.07,27.07,27.07-12.14,27.07-27.07S44.93,2.93,30,2.93Z"/></g><path class="cls-2" d="M44.63,28.54h-13.17V15.37c0-.81-.65-1.46-1.46-1.46s-1.46,.66-1.46,1.46v13.17H15.37c-.81,0-1.46,.66-1.46,1.46s.65,1.46,1.46,1.46h13.17v13.17c0,.81,.65,1.46,1.46,1.46s1.46-.66,1.46-1.46v-13.17h13.17c.81,0,1.46-.66,1.46-1.46s-.65-1.46-1.46-1.46Z"/></svg>