<?xml version="1.0" encoding="UTF-8"?><svg id="Capa_1" xmlns="http://www.w3.org/2000/svg" viewBox="0 0 339.08 339.08"><defs><style>.cls-1{fill:#ff7223;}.cls-2{fill:#d9487d;}</style></defs><path class="cls-1" d="M309.64,270.68c-1.93-5.3-5.49-10.5-10.88-15.91-61.29-61.47-123.7-123.86-184.05-184.21l-30.35-30.34c-1.35-1.35-2.85-2.78-4.72-4.5-6.42-5.93-14.51-8.64-23.4-7.84-12.32,1.11-21.62,8.06-26.2,19.58-4.78,12.03-2.26,24.2,6.91,33.4,27.38,27.48,55.28,55.36,82.25,82.33l56.86,56.85c27.36,27.36,54.71,54.73,82.1,82.06,6.08,6.07,14.27,9.26,22.37,9.26,5.21,0,10.38-1.32,14.93-4.04,13.3-7.95,19.13-23.02,14.16-36.64Z"/><path class="cls-2" d="M307.31,43.6c-7.95-13.3-23.02-19.13-36.64-14.16-5.3,1.93-10.5,5.49-15.91,10.88-61.63,61.45-124.19,124.03-184.7,184.54l-29.85,29.85c-1.35,1.35-2.74,2.81-4.51,4.72-5.93,6.42-8.64,14.51-7.84,23.4,1.11,12.32,8.06,21.62,19.58,26.2,4,1.59,8.01,2.37,11.92,2.37,7.87,0,15.34-3.16,21.48-9.28,27.55-27.44,55.49-55.4,82.52-82.44l56.92-56.93c27.28-27.27,54.55-54.54,81.8-81.84,9.97-9.99,12.17-25.68,5.22-37.31Z"/></svg>